# xmcd
#
# Track frame offsets:
#	150
#	18433
#	37733
#	62064
#	80722
#	98169
#	118807
#	139441
#	159554
#	176480
#	193325
#	217554
#	238192
#	256782
#	274229
#
# Disc length: 3920 seconds
#
# Revision: 1
# Processed by: cddbd v1.5.2PL0 Copyright (c) Steve Scherf et al.
# Submitted via: EZCDAudioConverter 8.0.2.1
#
DISCID=d20f4e0f
DTITLE=Quách Tuấn Du - Vol 10. Hẹn Nhau Nơi Ấy
DYEAR=2011
DGENRE=World Pop
TTITLE0=Quách Tuấn Du - Hẹn Nhau Nơi Ấy
TTITLE1=Quách Tuấn Du - Chờ một người quen
TTITLE2=Quách Tuấn Du - Ngôi sao trở lại
TTITLE3=Quách Tuấn Du - Vội vàng
TTITLE4=Quách Tuấn Du - Em đã không còn
TTITLE5=Quách Tuấn Du - Ngôi sao nguyện ước
TTITLE6=Quách Tuấn Du - Đã mất em rồi
TTITLE7=Quách Tuấn Du - Hãy nhìn tôi
TTITLE8=Quách Tuấn Du - Thước giấy
TTITLE9=Soundtrack - Thước giấy
TTITLE10=Soundtrack - Ngôi sao trở lại
TTITLE11=Soundtrack - Ngôi sao nguyện ước
TTITLE12=Soundtrack - Vội vàng
TTITLE13=Soundtrack - Đã mất em rồi
TTITLE14=Soundtrack - Look At Me Now
EXTD=
EXTT0=
EXTT1=
EXTT2=
EXTT3=
EXTT4=
EXTT5=
EXTT6=
EXTT7=
EXTT8=
EXTT9=
EXTT10=
EXTT11=
EXTT12=
EXTT13=
EXTT14=
PLAYORDER=
